<svg width="22" height="21" viewBox="0 0 22 21" fill="none" xmlns="http://www.w3.org/2000/svg">
<path d="M2.5 14V2H0.5V0H3.5C3.76522 0 4.01957 0.105357 4.20711 0.292893C4.39464 0.48043 4.5 0.734784 4.5 1V13H16.938L18.938 5H6.5V3H20.22C20.372 3 20.522 3.03466 20.6586 3.10134C20.7952 3.16801 20.9148 3.26495 21.0083 3.38479C21.1019 3.50462 21.1668 3.6442 21.1983 3.79291C21.2298 3.94162 21.2269 4.09555 21.19 4.243L18.69 14.243C18.6358 14.4592 18.511 14.6512 18.3352 14.7883C18.1595 14.9255 17.9429 15 17.72 15H3.5C3.23478 15 2.98043 14.8946 2.79289 14.7071C2.60536 14.5196 2.5 14.2652 2.5 14ZM4.5 21C3.96957 21 3.46086 20.7893 3.08579 20.4142C2.71071 20.0391 2.5 19.5304 2.5 19C2.5 18.4696 2.71071 17.9609 3.08579 17.5858C3.46086 17.2107 3.96957 17 4.5 17C5.03043 17 5.53914 17.2107 5.91421 17.5858C6.28929 17.9609 6.5 18.4696 6.5 19C6.5 19.5304 6.28929 20.0391 5.91421 20.4142C5.53914 20.7893 5.03043 21 4.5 21ZM16.5 21C15.9696 21 15.4609 20.7893 15.0858 20.4142C14.7107 20.0391 14.5 19.5304 14.5 19C14.5 18.4696 14.7107 17.9609 15.0858 17.5858C15.4609 17.2107 15.9696 17 16.5 17C17.0304 17 17.5391 17.2107 17.9142 17.5858C18.2893 17.9609 18.5 18.4696 18.5 19C18.5 19.5304 18.2893 20.0391 17.9142 20.4142C17.5391 20.7893 17.0304 21 16.5 21Z" fill="black"/>
</svg>
