<svg width="32" height="32" viewBox="0 0 32 32" fill="none" xmlns="http://www.w3.org/2000/svg">
<path d="M5.3335 29.3334C5.3335 23.4423 10.1091 18.6667 16.0002 18.6667C21.8912 18.6667 26.6668 23.4423 26.6668 29.3334H24.0002C24.0002 24.9151 20.4184 21.3334 16.0002 21.3334C11.5819 21.3334 8.00016 24.9151 8.00016 29.3334H5.3335ZM16.0002 17.3334C11.5802 17.3334 8.00016 13.7534 8.00016 9.33337C8.00016 4.91337 11.5802 1.33337 16.0002 1.33337C20.4202 1.33337 24.0002 4.91337 24.0002 9.33337C24.0002 13.7534 20.4202 17.3334 16.0002 17.3334ZM16.0002 14.6667C18.9468 14.6667 21.3335 12.28 21.3335 9.33337C21.3335 6.38671 18.9468 4.00004 16.0002 4.00004C13.0535 4.00004 10.6668 6.38671 10.6668 9.33337C10.6668 12.28 13.0535 14.6667 16.0002 14.6667Z" fill="black"/>
</svg>
