<svg width="28" height="28" viewBox="0 0 28 28" fill="none" xmlns="http://www.w3.org/2000/svg">
<path d="M2.70271 18.6667V2.66667H0V0H4.05406C4.41246 0 4.75618 0.140476 5.00961 0.390524C5.26304 0.640573 5.40541 0.979711 5.40541 1.33333V17.3333H22.2135L24.9162 6.66667H8.10812V4H26.6487C26.8541 4.00001 27.0568 4.04621 27.2414 4.13512C27.426 4.22402 27.5876 4.35327 27.714 4.51305C27.8404 4.67283 27.9282 4.85893 27.9707 5.05721C28.0132 5.25549 28.0094 5.46073 27.9595 5.65733L24.5811 18.9907C24.5079 19.279 24.3392 19.5349 24.1017 19.7178C23.8642 19.9007 23.5716 20 23.2703 20H4.05406C3.69566 20 3.35194 19.8595 3.09851 19.6095C2.84508 19.3594 2.70271 19.0203 2.70271 18.6667ZM5.40541 28C4.68861 28 4.00117 27.719 3.49431 27.219C2.98745 26.7189 2.70271 26.0406 2.70271 25.3333C2.70271 24.6261 2.98745 23.9478 3.49431 23.4477C4.00117 22.9476 4.68861 22.6667 5.40541 22.6667C6.12221 22.6667 6.80966 22.9476 7.31651 23.4477C7.82337 23.9478 8.10812 24.6261 8.10812 25.3333C8.10812 26.0406 7.82337 26.7189 7.31651 27.219C6.80966 27.719 6.12221 28 5.40541 28ZM21.6216 28C20.9048 28 20.2174 27.719 19.7105 27.219C19.2037 26.7189 18.9189 26.0406 18.9189 25.3333C18.9189 24.6261 19.2037 23.9478 19.7105 23.4477C20.2174 22.9476 20.9048 22.6667 21.6216 22.6667C22.3385 22.6667 23.0259 22.9476 23.5327 23.4477C24.0396 23.9478 24.3244 24.6261 24.3244 25.3333C24.3244 26.0406 24.0396 26.7189 23.5327 27.219C23.0259 27.719 22.3385 28 21.6216 28Z" fill="#3C2F07"/>
</svg>
